<?xml version="1.0" encoding="utf-8"?>
<!-- Generator: Adobe Illustrator 16.0.0, SVG Export Plug-In . SVG Version: 6.00 Build 0)  -->
<!DOCTYPE svg PUBLIC "-//W3C//DTD SVG 1.1//EN" "http://www.w3.org/Graphics/SVG/1.1/DTD/svg11.dtd">
<svg version="1.1" id="b13b70b1-aa4f-457d-9f62-b44ed99594ac"
	 xmlns="http://www.w3.org/2000/svg" xmlns:xlink="http://www.w3.org/1999/xlink" x="0px" y="0px" width="846.02px"
	 height="713.529px" viewBox="0 0 846.02 713.529" enable-background="new 0 0 846.02 713.529" xml:space="preserve">
<title>social thinking</title>
<path fill="#6E6E6E" d="M93.483,679.876c0,22.469-13.356,30.313-29.834,30.313c-0.381,0-0.763-0.004-1.143-0.013
	c-0.764-0.017-1.52-0.053-2.267-0.104c-14.871-1.053-26.424-9.301-26.424-30.197c0-21.625,27.634-48.912,29.71-50.932l0.004-0.004
	c0.08-0.078,0.12-0.116,0.12-0.116S93.483,657.407,93.483,679.876z"/>
<path fill="#3F3D56" d="M62.563,706.753l10.912-15.247l-10.939,16.921l-0.029,1.75c-0.764-0.016-1.52-0.053-2.267-0.104
	l1.176-22.479l-0.009-0.174l0.02-0.033l0.111-2.123l-10.966-16.963l11,15.371l0.026,0.45l0.889-16.984l-9.389-17.528l9.503,14.547
	l0.925-35.212l0.004-0.12v0.116l-0.155,27.768l9.347-11.009l-9.385,13.4l-0.247,15.207l8.727-14.595l-8.763,16.832l-0.138,8.454
	l12.669-20.313l-12.716,23.263L62.563,706.753z"/>
<path fill="#F2F2F2" d="M733.09,394.388c0,176.18-79.99,315.164-178.5,319.001c-128.461,5.003-296.356-123.086-178.5-319.001
	c90.818-150.967,79.917-319,178.5-319C653.174,75.388,733.09,218.209,733.09,394.388z"/>
<rect x="374.947" y="488.049" fill="#6E6E6E" width="254.514" height="221.024"/>
<line fill="none" stroke="#3F3D56" stroke-width="2" stroke-miterlimit="10" x1="0" y1="709.073" x2="846.02" y2="709.073"/>
<path fill="#2F2E41" d="M537.446,268.119c0,0,42.348,1.151,49.34,3.696c6.994,2.544,10.121,20.739,10.121,20.739l-32.879,10.334
	l-24.592-1.393l-18.508,1.308l10.334-27.065L537.446,268.119z"/>
<path fill="#9F616A" d="M539.274,254.224c0,0,2.785,10.761-3.398,18.38s26.582,34.77,26.582,34.77l17.285-2.971
	c0,0-3.809-33.064,1.309-41.437S539.274,254.224,539.274,254.224z"/>
<path opacity="0.1" enable-background="new    " d="M539.274,254.224c0,0,2.785,10.761-3.398,18.38s26.582,34.77,26.582,34.77
	l17.285-2.971c0,0-3.809-33.064,1.309-41.437S539.274,254.224,539.274,254.224z"/>
<polygon fill="#9F616A" points="654.231,568.843 616.092,619.42 642.12,634.616 677.942,576.007 "/>
<path fill="#2F2E41" d="M627.477,620.272c0,0-14.043-16.318-13.418-12.68c0.625,3.64-9.994,34.5-0.113,37.485
	c9.879,2.984,94.6,10.902,95.766,1.336c1.166-9.567-25.273-16.262-25.273-16.262s-15.709-15.097-19.191-13.562
	S627.477,620.272,627.477,620.272z"/>
<polygon fill="#9F616A" points="645.672,617.145 676.135,669.044 699.135,655.725 668.417,613.236 "/>
<path fill="#2F2E41" d="M693.762,493.674l-9.041,12.794c0,0-43.1,59.859-38.521,64.692c4.576,4.833,23.639,23.099,33.334,19.56
	c9.693-3.54,44.137-64.721,44.137-64.721l-8.984-35.922L693.762,493.674z"/>
<path fill="#2F2E41" d="M508.1,481.563c0,0,9.652,18.011,34.115,24.108c24.465,6.098,50.023,18.564,50.934,18.408
	s3.482-1.535,4.107,2.104c0.625,3.64,7.336,9.979,7.336,9.979s27.021,91.828,37.342,91.928s31.529-7.292,31.971-10.178
	c0.439-2.886-31.602-96.662-31.914-98.481l-3.752-21.834c0,0,42.375,6.766,46.326,7.96s39.105,20.441,39.105,20.441
	s35.836-25.829,2.316-51.913c-33.52-26.085-91.133-45.218-91.133-45.218l-20.668-5.813l-18.014-1.075l-2.652-10.171l-42.662,2.461
	l-44.521,18.892L508.1,481.563z"/>
<circle fill="#9F616A" cx="564.405" cy="242.411" r="33.231"/>
<path fill="#D0CDE1" d="M534.34,269.121l3.996-0.687c0,0,7.219,27.795,29.551,32.386c0,0,11.02-13.2,10.549-15.428
	c-0.471-2.227,8.727-14.111,13.617-7.458c4.891,6.653-1.193,123.841,2.914,125.944c4.109,2.104,12.922,4.336,5.828,12.111
	s-35.268,18.238-41.508,14.628c-6.24-3.611-18.99-34.201-24.506-44.493c-5.516-10.291-14.344-45.303-14.344-45.303
	s-11.271-38.338-4.336-47.023C523.04,285.113,534.34,269.121,534.34,269.121z"/>
<path fill="#2F2E41" d="M566.145,413.392c-0.742,8.163-2.014,16.27-3.807,24.268c-1.631,6.508-3.527,10.438-5.693,10.271
	c-5.525-0.413-8.037,7.69-9.332,17.034c-1.385,9.913-1.385,21.221-2.143,25.217c-1.006,5.28-7.436,9.31-20.283,8.127
	c-7.652-0.871-15.162-2.713-22.348-5.481c-17.348-6.307-16.834-57.455-13.932-95.409c1.773-23.264,4.441-41.582,4.441-41.582
	s-5.268-15.717-6.953-26.49c-0.336-1.965-0.504-3.956-0.502-5.95c0.256-9.41,17.436-34.839,27.816-50.679
	c10.393-15.84,24.57-4.22,24.57-4.22l-4.934,14.891c0,0,7.646,11.799,7.701,23.029c0.057,11.229,18.309,19.334,24.859,24.771
	C569.729,334.604,569.627,380.204,566.145,413.392z"/>
<path fill="#2F2E41" d="M580.575,273.818c0,0,1.197,1.416,6.682,0.725c6.576-0.828,15.617,1.447,17.719,7.726
	c3.852,11.514,14.713,58.352,14.713,58.352s4.52,53.547,6.553,65.375s1.023,22.304,3.027,28.516s-19.787-11.585-27.818-9.269
	c-8.031,2.317-13.191-27.704-12.182-38.182c1.008-10.476,1.861-21.861-0.924-32.623c-2.787-10.761,2.152-39.241,1.967-45.765
	C590.127,302.149,572.602,285.705,580.575,273.818z"/>
<path fill="#9F616A" d="M604.088,440.244c0,0,35.186,19.196,38.553,46.518c3.367,27.322-47.063-26.454-47.063-26.454
	L604.088,440.244z"/>
<path fill="#9F616A" d="M624.174,420.869c0,0,10.781,54.345,27.576,51.458s-9.381-54.585-9.381-54.585L624.174,420.869z"/>
<path fill="#2F2E41" d="M681.694,657.786c0,0-8.6,9.907-10.732,8.4s-7.037,19.006-2.615,22.929
	c4.42,3.924,21.451,10.363,21.635,16.888c0.186,6.524,45.857,5.231,47.492-1.606c1.635-6.837-5.729-22.431-10.902-25.288
	s-24.307-29.155-24.307-29.155S687.28,652.143,681.694,657.786z"/>
<path opacity="0.1" enable-background="new    " d="M598.483,473.481c-8.16-5.761-30.943-7.189-51.17-8.518
	c-8.875-0.569-17.258-1.128-23.699-2.031c-6.207-0.86-11.787-6.53-16.744-14.981c-7.512-12.804-13.584-32.004-18.262-50.534
	c1.773-23.264,4.441-41.582,4.441-41.582s-5.268-15.717-6.953-26.49c1.188-1.653,2.719-3.032,4.486-4.041
	c21.455-9.209,41.939,81.421,44.541,95.643c0.045,0.234,0.078,0.458,0.111,0.647c1.262,7.323,14.891,13.586,27.104,16.063
	c7.523,1.529,14.523,1.63,17.748-0.357c8.473-5.201,34.527,15.617,36.504,16.209C618.565,454.113,610.206,481.775,598.483,473.481z"
	/>
<path fill="#2F2E41" d="M490.586,319.726c0,0-15.594,7.363-8.742,41.778c6.852,34.415,20.654,92.923,41.764,95.852
	c21.109,2.928,63.145,2.26,74.871,10.547s20.086-19.375,18.109-19.972c-1.975-0.598-28.031-21.408-36.504-16.205
	c-8.473,5.202-42.814-3.881-44.848-15.708C533.204,404.191,512.393,310.358,490.586,319.726z"/>
<path fill="#2F2E41" d="M602.956,303.222l17.139,39.767c0,0,1.725-0.861,3.73,5.351c2.004,6.212,2.941,11.67,6.453,15.75
	c3.51,4.08,19.133,62.275,19.602,65.005s-21.576,12.139-26.502,4.555C618.452,426.068,602.956,303.222,602.956,303.222z"/>
<path fill="#2F2E41" d="M545.499,241.948c1.273-0.34,1.461-2.031,1.504-3.349c0.229-7.055,4.477-14.295,11.23-16.349
	c2.592-0.711,5.305-0.86,7.959-0.438c3.787,0.505,7.445,1.725,10.777,3.596c1.76,0.989,3.484,2.18,5.48,2.482
	c1.316,0.199,7.021,1.858,8.334,2.092c2.885,0.513,5.566,3.094,8.334,2.134c2.648-0.919,3.234-4.348,3.299-7.15
	c0.146-6.385-4.701-15.221-8.971-19.971c-3.238-3.604-8.117-5.268-12.885-6.133c-5.57-0.895-11.215-1.238-16.854-1.025
	c-7.631,0.136-15.473,0.725-22.355,4.027c-6.881,3.302-12.66,9.874-12.99,17.499c-0.068,1.588,0.096,3.184-0.039,4.768
	c-0.324,3.865-2.377,7.356-3.34,11.113c-1.393,5.574-0.359,11.478,2.84,16.25c2.553,3.758,6.568,7.157,6.42,11.699l5.537-5.737
	c1.705-1.301,2.268-3.616,1.354-5.556l-1.961-7.645c-0.504-1.365-0.563-2.854-0.17-4.255
	C541.104,234.808,543.375,242.515,545.499,241.948z"/>
<path fill="#F2F2F2" d="M292.583,468.935c0,105.948-62.985,142.941-140.681,142.941S11.221,574.883,11.221,468.935
	c0-105.949,140.681-240.733,140.681-240.733S292.583,362.985,292.583,468.935z"/>
<polygon fill="#3F3D56" points="146.777,595.669 148.218,507 208.179,397.303 148.444,493.09 149.091,453.22 190.417,373.856 
	149.263,442.67 149.263,442.67 150.428,370.963 194.68,307.779 150.611,359.687 151.339,228.202 146.765,402.264 147.14,395.084 
	102.149,326.217 146.419,408.868 142.227,488.953 142.102,486.827 90.235,414.355 141.945,494.336 141.421,504.352 141.327,504.502 
	141.37,505.324 130.734,708.506 144.944,708.506 146.649,603.558 198.232,523.773 "/>
</svg>
