<?xml version="1.0" encoding="utf-8"?>
<!-- Generator: Adobe Illustrator 16.0.0, SVG Export Plug-In . SVG Version: 6.00 Build 0)  -->
<!DOCTYPE svg PUBLIC "-//W3C//DTD SVG 1.1//EN" "http://www.w3.org/Graphics/SVG/1.1/DTD/svg11.dtd" [
	<!ENTITY ns_extend "http://ns.adobe.com/Extensibility/1.0/">
	<!ENTITY ns_ai "http://ns.adobe.com/AdobeIllustrator/10.0/">
	<!ENTITY ns_graphs "http://ns.adobe.com/Graphs/1.0/">
	<!ENTITY ns_vars "http://ns.adobe.com/Variables/1.0/">
	<!ENTITY ns_imrep "http://ns.adobe.com/ImageReplacement/1.0/">
	<!ENTITY ns_sfw "http://ns.adobe.com/SaveForWeb/1.0/">
	<!ENTITY ns_custom "http://ns.adobe.com/GenericCustomNamespace/1.0/">
	<!ENTITY ns_adobe_xpath "http://ns.adobe.com/XPath/1.0/">
]>
<svg version="1.1" id="Layer_1" xmlns:x="&ns_extend;" xmlns:i="&ns_ai;" xmlns:graph="&ns_graphs;"
	 xmlns="http://www.w3.org/2000/svg" xmlns:xlink="http://www.w3.org/1999/xlink" x="0px" y="0px" width="302.526px"
	 height="167.949px" viewBox="0 0 302.526 167.949" enable-background="new 0 0 302.526 167.949" xml:space="preserve">
<metadata>
	<sfw  xmlns="&ns_sfw;">
		<slices></slices>
		<sliceSourceBounds  width="302.526" height="167.949" x="808.684" y="-584.795" bottomLeftOrigin="true"></sliceSourceBounds>
	</sfw>
</metadata>
<path fill="#ffffff" d="M218.552,0c-27.535,0-51.976,13.253-67.289,33.729C135.949,13.253,111.509,0,83.974,0
	C37.596,0,0,37.597,0,83.975s37.596,83.975,83.974,83.975c27.535,0,51.976-13.253,67.289-33.729
	c15.313,20.476,39.754,33.729,67.289,33.729c46.378,0,83.975-37.597,83.975-83.975S264.93,0,218.552,0 M83.974,120.806
	c-19.159,0-34.692-15.532-34.692-34.691c0-19.16,15.533-34.692,34.692-34.692c19.16,0,34.692,15.532,34.692,34.692
	C118.666,105.273,103.134,120.806,83.974,120.806 M218.552,120.806c-19.159,0-34.691-15.532-34.691-34.691
	c0-19.16,15.532-34.692,34.691-34.692c19.16,0,34.692,15.532,34.692,34.692C253.244,105.273,237.712,120.806,218.552,120.806"/>
</svg>
