<?xml version="1.0" encoding="utf-8"?>
<!-- Generator: Adobe Illustrator 16.0.0, SVG Export Plug-In . SVG Version: 6.00 Build 0)  -->
<!DOCTYPE svg PUBLIC "-//W3C//DTD SVG 1.1//EN" "http://www.w3.org/Graphics/SVG/1.1/DTD/svg11.dtd" [
	<!ENTITY ns_extend "http://ns.adobe.com/Extensibility/1.0/">
	<!ENTITY ns_ai "http://ns.adobe.com/AdobeIllustrator/10.0/">
	<!ENTITY ns_graphs "http://ns.adobe.com/Graphs/1.0/">
	<!ENTITY ns_vars "http://ns.adobe.com/Variables/1.0/">
	<!ENTITY ns_imrep "http://ns.adobe.com/ImageReplacement/1.0/">
	<!ENTITY ns_sfw "http://ns.adobe.com/SaveForWeb/1.0/">
	<!ENTITY ns_custom "http://ns.adobe.com/GenericCustomNamespace/1.0/">
	<!ENTITY ns_adobe_xpath "http://ns.adobe.com/XPath/1.0/">
]>
<svg version="1.1" id="Layer_1" xmlns:x="&ns_extend;" xmlns:i="&ns_ai;" xmlns:graph="&ns_graphs;"
	 xmlns="http://www.w3.org/2000/svg" xmlns:xlink="http://www.w3.org/1999/xlink" x="0px" y="0px" width="88.38px"
	 height="88.814px" viewBox="0 0 88.38 88.814" enable-background="new 0 0 88.38 88.814" xml:space="preserve">
<metadata>
	<sfw  xmlns="&ns_sfw;">
		<slices></slices>
		<sliceSourceBounds  height="88.814" width="88.38" y="-545.306" x="913.946" bottomLeftOrigin="true"></sliceSourceBounds>
	</sfw>
</metadata>
<g>
	<path fill="#ffffff" d="M32.892,1.416C23.716,3.78,15.954,8.85,10.235,15.547l0.449-0.116c1.399-1.509,2.942-2.896,4.62-4.131
		c3.836-3.471,8.539-6.095,13.896-7.477c0.357-0.093,0.716-0.169,1.074-0.248c0.353-0.103,0.703-0.21,1.062-0.303
		c3.187-0.82,6.385-1.141,9.513-1.021c4.676-0.316,9.263,0.374,13.503,1.924c7.792,1.803,14.743,6.4,19.438,12.961
		c3.196,3.717,5.614,8.201,6.921,13.268c1.191,4.624,1.334,9.27,0.592,13.692c-0.936,13.818-10.561,26.097-24.706,29.746
		c-8.441,2.176-16.959,0.877-24.052-2.994c-9.505-0.67-18.274-5.447-23.995-12.982c-3.786,0.225-7.326-2.246-8.309-6.059
		C0.139,51.402,0.07,51,0.029,50.595l-0.02,0.006c0.231,1.627,0.552,3.258,0.972,4.887c6.12,23.744,30.329,38.031,54.072,31.91
		c23.744-6.119,38.03-30.328,31.91-54.073C80.845,9.583,56.636-4.704,32.892,1.416"/>
	<path fill="#ffffff" d="M27.163,67.181c-0.979-0.818-1.913-1.689-2.795-2.621c-1.608-1.695-3.045-3.574-4.276-5.611
		c-1.623-2.688-2.893-5.648-3.716-8.846c-0.09-0.35-0.164-0.697-0.242-1.047c-0.039-0.43-0.104-0.859-0.215-1.291
		c-0.031-0.121-0.074-0.234-0.109-0.355c-0.778-2.533-2.696-4.432-5.046-5.26c-1.117-0.395-2.331-0.537-3.563-0.401
		c-0.38,0.041-0.76,0.102-1.142,0.2c-0.345,0.088-0.675,0.206-0.997,0.335c-1.009,0.404-1.898,0.996-2.642,1.724
		c0,0.003,0,0.004,0.001,0.006c-1.987,1.958-2.911,4.889-2.164,7.79c0.982,3.813,4.516,6.285,8.293,6.064
		c5.721,7.535,14.49,12.311,23.995,12.98C30.638,69.806,28.836,68.578,27.163,67.181"/>
</g>
</svg>
