<?xml version="1.0" encoding="utf-8"?>
<!-- Generator: Adobe Illustrator 16.0.0, SVG Export Plug-In . SVG Version: 6.00 Build 0)  -->
<!DOCTYPE svg PUBLIC "-//W3C//DTD SVG 1.1//EN" "http://www.w3.org/Graphics/SVG/1.1/DTD/svg11.dtd" [
	<!ENTITY ns_extend "http://ns.adobe.com/Extensibility/1.0/">
	<!ENTITY ns_ai "http://ns.adobe.com/AdobeIllustrator/10.0/">
	<!ENTITY ns_graphs "http://ns.adobe.com/Graphs/1.0/">
	<!ENTITY ns_vars "http://ns.adobe.com/Variables/1.0/">
	<!ENTITY ns_imrep "http://ns.adobe.com/ImageReplacement/1.0/">
	<!ENTITY ns_sfw "http://ns.adobe.com/SaveForWeb/1.0/">
	<!ENTITY ns_custom "http://ns.adobe.com/GenericCustomNamespace/1.0/">
	<!ENTITY ns_adobe_xpath "http://ns.adobe.com/XPath/1.0/">
]>
<svg version="1.1" id="Layer_1" xmlns:x="&ns_extend;" xmlns:i="&ns_ai;" xmlns:graph="&ns_graphs;"
	 xmlns="http://www.w3.org/2000/svg" xmlns:xlink="http://www.w3.org/1999/xlink" x="0px" y="0px" width="497.62px"
	 height="85.441px" viewBox="0 0 497.62 85.441" enable-background="new 0 0 497.62 85.441" xml:space="preserve">
<metadata>
	<sfw  xmlns="&ns_sfw;">
		<slices></slices>
		<sliceSourceBounds  width="497.62" height="85.441" y="-221.426" x="53.047" bottomLeftOrigin="true"></sliceSourceBounds>
	</sfw>
</metadata>
<g>
	<path fill="#231F20" d="M0,0.65h32.664v9.598H9.773v9.387h22.891v9.457H9.773v23.273H0V0.65z"/>
	<path d="M40.113,14.766h8.227v4.816c0.891-1.898,2.074-3.34,3.551-4.324s3.094-1.477,4.852-1.477c1.242,0,2.543,0.329,3.902,0.984
		l-2.988,8.262c-1.125-0.563-2.051-0.844-2.777-0.844c-1.477,0-2.725,0.914-3.744,2.742s-1.529,5.414-1.529,10.758l0.035,1.863
		v15.469h-9.527V14.766z"/>
	<path fill="#231F20" d="M83.355,13.781c3.609,0,7.001,0.902,10.178,2.707c3.176,1.805,5.654,4.254,7.436,7.348
		c1.781,3.094,2.672,6.434,2.672,10.02c0,3.609-0.896,6.984-2.689,10.125c-1.793,3.141-4.236,5.596-7.33,7.365S87.117,54,83.391,54
		c-5.484,0-10.166-1.951-14.045-5.854c-3.879-3.902-5.818-8.643-5.818-14.221c0-5.977,2.191-10.957,6.574-14.941
		C73.945,15.516,78.363,13.781,83.355,13.781z M83.514,22.816c-2.981,0-5.465,1.037-7.448,3.111
		c-1.984,2.074-2.976,4.729-2.976,7.963c0,3.328,0.98,6.024,2.94,8.086c1.96,2.063,4.443,3.094,7.448,3.094
		c3.005,0,5.505-1.042,7.501-3.129c1.995-2.086,2.993-4.769,2.993-8.051c0-3.281-0.98-5.947-2.94-7.998
		C89.072,23.842,86.565,22.816,83.514,22.816z"/>
	<path fill="#231F20" d="M111.41,14.766h9.598v4.395c1.642-1.805,3.465-3.152,5.471-4.043c2.005-0.891,4.192-1.336,6.562-1.336
		c2.392,0,4.55,0.586,6.474,1.758c1.923,1.172,3.471,2.883,4.644,5.133c1.524-2.25,3.395-3.96,5.611-5.133
		c2.216-1.172,4.639-1.758,7.265-1.758c2.721,0,5.113,0.633,7.178,1.898c2.063,1.266,3.547,2.918,4.45,4.957
		s1.354,5.356,1.354,9.949v22.43h-9.668V33.609c0-4.336-0.539-7.271-1.617-8.807c-1.078-1.535-2.695-2.303-4.852-2.303
		c-1.641,0-3.111,0.469-4.412,1.406c-1.301,0.938-2.268,2.232-2.9,3.885s-0.949,4.307-0.949,7.963v17.262h-9.668V34.488
		c0-3.422-0.253-5.9-0.757-7.436c-0.505-1.535-1.263-2.677-2.273-3.428c-1.01-0.75-2.232-1.125-3.665-1.125
		c-1.597,0-3.048,0.475-4.352,1.424s-2.278,2.28-2.925,3.99c-0.646,1.711-0.969,4.407-0.969,8.086v17.016h-9.598V14.766z"/>
	<path fill="#231F20" d="M195.258,1.301h28.582v9.703h-9.422v42.012h-9.984V11.004h-9.176V1.301z"/>
	<path fill="#231F20" d="M229.57,0h9.527v18.633c1.875-1.617,3.762-2.83,5.66-3.639s3.82-1.213,5.766-1.213c3.797,0,6.996,1.313,9.598,3.938
		c2.227,2.273,3.34,5.613,3.34,10.02v25.277h-9.457v-16.77c0-4.43-0.211-7.43-0.633-9c-0.422-1.57-1.143-2.742-2.162-3.516
		s-2.279-1.16-3.779-1.16c-1.945,0-3.615,0.645-5.01,1.934c-1.395,1.289-2.361,3.047-2.9,5.273
		c-0.281,1.148-0.422,3.774-0.422,7.875v15.363h-9.527V0z"/>
	<path fill="#231F20" d="M311.063,36.668H280.23c0.445,2.719,1.635,4.881,3.568,6.486c1.934,1.605,4.4,2.408,7.4,2.408
		c3.586,0,6.668-1.253,9.246-3.762l8.086,3.797c-2.016,2.86-4.43,4.975-7.242,6.346S295.137,54,291.27,54
		c-6,0-10.887-1.893-14.66-5.678c-3.773-3.785-5.66-8.525-5.66-14.221c0-5.836,1.881-10.682,5.643-14.537
		c3.762-3.855,8.479-5.783,14.15-5.783c6.023,0,10.922,1.928,14.695,5.783c3.773,3.855,5.66,8.947,5.66,15.275L311.063,36.668z
		 M301.465,29.109c-0.634-2.132-1.884-3.867-3.751-5.203c-1.866-1.336-4.032-2.004-6.497-2.004c-2.676,0-5.024,0.75-7.043,2.25
		c-1.268,0.938-2.441,2.59-3.521,4.957H301.465z"/>
	<path fill="#231F20" d="M339.996,1.301h10.441c5.648,0,9.721,0.522,12.217,1.564c2.496,1.043,4.465,2.73,5.906,5.063
		c1.441,2.333,2.162,5.127,2.162,8.385c0,3.609-0.943,6.609-2.83,9s-4.447,4.055-7.682,4.992c-1.898,0.54-5.355,0.809-10.371,0.809
		v21.902h-9.844V1.301z M349.84,21.516h3.129c2.461,0,4.172-0.176,5.133-0.529c0.961-0.353,1.717-0.935,2.268-1.746
		c0.551-0.811,0.826-1.793,0.826-2.945c0-1.999-0.773-3.457-2.32-4.374c-1.125-0.682-3.211-1.023-6.258-1.023h-2.777V21.516z"/>
	<path fill="#231F20" d="M396.133,1.301h9.982l19.891,51.715h-10.23l-4.046-10.652h-21.103l-4.207,10.652h-10.23L396.133,1.301z M401.186,15.012
		l-6.938,17.754h13.836L401.186,15.012z"/>
	<path d="M460.758,8.332l-7.291,6.434c-2.56-3.563-5.165-5.344-7.818-5.344c-1.292,0-2.348,0.346-3.17,1.037
		c-0.821,0.691-1.232,1.471-1.232,2.338c0,0.867,0.293,1.688,0.881,2.461c0.798,1.032,3.204,3.247,7.219,6.645
		c3.756,3.141,6.034,5.121,6.832,5.941c1.995,2.016,3.41,3.943,4.244,5.783c0.833,1.84,1.25,3.85,1.25,6.029
		c0,4.242-1.467,7.747-4.399,10.512c-2.933,2.766-6.757,4.148-11.473,4.148c-3.685,0-6.893-0.902-9.626-2.707
		s-5.074-4.641-7.021-8.508l8.274-4.992c2.488,4.57,5.352,6.855,8.591,6.855c1.69,0,3.11-0.492,4.261-1.477s1.726-2.121,1.726-3.41
		c0-1.172-0.435-2.343-1.303-3.516c-0.869-1.172-2.782-2.965-5.74-5.379c-5.635-4.593-9.274-8.139-10.918-10.635
		s-2.465-4.986-2.465-7.471c0-3.586,1.367-6.662,4.101-9.229S441.785,0,445.798,0c2.582,0,5.04,0.598,7.374,1.793
		C455.507,2.988,458.035,5.168,460.758,8.332z"/>
	<path fill="#231F20" d="M465.961,1.301h28.582v9.703h-9.422v42.012h-9.984V11.004h-9.176V1.301z"/>
</g>
<g>
	<path fill="#231F20" d="M353.824,68.588h-5.911v15.665h-1.234V68.588h-5.85v-1.235h12.995V68.588z"/>
	<path fill="#231F20" d="M364.611,82.648c-0.298,0.36-0.635,0.661-1.011,0.903s-0.756,0.438-1.142,0.586s-0.767,0.257-1.143,0.324
		c-0.376,0.066-0.712,0.1-1.011,0.1c-2.448,0-3.673-1.456-3.673-4.368v-7.901h1.234v7.793c0,1.122,0.208,1.942,0.625,2.461
		c0.417,0.52,1.14,0.78,2.169,0.78c0.74,0,1.438-0.206,2.091-0.618c0.653-0.411,1.273-0.998,1.859-1.759v-8.658h1.235v11.96h-1.235
		V82.648z"/>
	<path fill="#231F20" d="M377.128,67.045c1.152,0,2.217,0.206,3.194,0.618s1.818,0.998,2.523,1.759s1.255,1.677,1.651,2.747
		c0.396,1.07,0.594,2.264,0.594,3.581c0,1.41-0.221,2.68-0.663,3.812c-0.442,1.132-1.064,2.089-1.867,2.871l2.67,2.099
		c-0.154,0.195-0.286,0.36-0.394,0.494c-0.108,0.134-0.219,0.272-0.332,0.417l-2.87-2.238c-0.628,0.442-1.32,0.779-2.076,1.011
		s-1.566,0.347-2.431,0.347c-1.173,0-2.248-0.213-3.226-0.641c-0.978-0.427-1.818-1.026-2.523-1.798
		c-0.705-0.771-1.253-1.698-1.644-2.778s-0.586-2.279-0.586-3.596c0-1.328,0.197-2.526,0.594-3.596
		c0.396-1.07,0.949-1.983,1.659-2.739s1.551-1.34,2.523-1.751C374.897,67.251,375.965,67.045,377.128,67.045z M377.112,83.327
		c0.658,0,1.281-0.08,1.867-0.239c0.587-0.16,1.132-0.388,1.636-0.687l-1.867-1.466c0.175-0.206,0.312-0.373,0.409-0.502
		c0.098-0.128,0.214-0.27,0.348-0.424l2.099,1.667c0.689-0.648,1.227-1.469,1.612-2.462c0.386-0.993,0.579-2.147,0.579-3.464
		c0-1.214-0.167-2.284-0.502-3.21c-0.334-0.926-0.797-1.705-1.389-2.338s-1.291-1.111-2.099-1.436
		c-0.808-0.324-1.69-0.486-2.646-0.486c-0.979,0-1.876,0.165-2.693,0.494c-0.818,0.33-1.525,0.811-2.122,1.443
		c-0.597,0.633-1.063,1.413-1.396,2.338c-0.335,0.926-0.502,1.991-0.502,3.195c0,1.204,0.164,2.276,0.494,3.218
		c0.329,0.941,0.789,1.736,1.381,2.384c0.592,0.648,1.297,1.14,2.114,1.474C375.253,83.16,376.146,83.327,377.112,83.327z"/>
	<path fill="#231F20" d="M396.403,82.648c-0.298,0.36-0.635,0.661-1.011,0.903s-0.756,0.438-1.142,0.586s-0.767,0.257-1.143,0.324
		c-0.376,0.066-0.712,0.1-1.011,0.1c-2.448,0-3.673-1.456-3.673-4.368v-7.901h1.234v7.793c0,1.122,0.208,1.942,0.625,2.461
		c0.417,0.52,1.14,0.78,2.169,0.78c0.74,0,1.438-0.206,2.091-0.618c0.653-0.411,1.273-0.998,1.859-1.759v-8.658h1.235v11.96h-1.235
		V82.648z"/>
	<path fill="#231F20" d="M409.383,82.709c-0.422,0.371-0.833,0.677-1.234,0.918s-0.795,0.432-1.181,0.571c-0.386,0.139-0.77,0.234-1.15,0.286
		c-0.38,0.051-0.767,0.077-1.157,0.077c-0.524,0-1.014-0.08-1.466-0.239c-0.453-0.159-0.844-0.386-1.173-0.679
		c-0.33-0.293-0.589-0.648-0.779-1.065c-0.19-0.417-0.286-0.877-0.286-1.381c0-1.368,0.584-2.433,1.752-3.195
		c1.168-0.761,2.919-1.142,5.255-1.142h1.42c0-0.524-0.031-1.008-0.093-1.451s-0.206-0.826-0.432-1.149
		c-0.227-0.324-0.562-0.579-1.004-0.764s-1.044-0.278-1.806-0.278c-1.121,0-1.962,0.175-2.522,0.525
		c-0.562,0.35-0.894,0.879-0.996,1.589h-1.219c0.123-1.131,0.565-1.973,1.327-2.523c0.761-0.55,1.893-0.826,3.396-0.826
		c0.833,0,1.54,0.103,2.122,0.309c0.581,0.206,1.054,0.501,1.42,0.887c0.364,0.386,0.63,0.854,0.794,1.404
		c0.165,0.551,0.247,1.17,0.247,1.86v7.809h-1.234V82.709z M409.383,78.095h-1.867c-1.79,0-3.125,0.257-4.005,0.771
		c-0.88,0.515-1.319,1.25-1.319,2.207c0,0.71,0.277,1.263,0.833,1.659s1.316,0.594,2.284,0.594c0.422,0,0.831-0.064,1.227-0.193
		c0.396-0.128,0.77-0.295,1.119-0.501c0.35-0.206,0.671-0.435,0.965-0.687c0.293-0.252,0.548-0.497,0.764-0.733V78.095z"/>
	<path fill="#231F20" d="M427.949,84.253h-1.651l-6.744-9.229l-3.442,3.333v5.896h-1.234V67.354h1.234v9.291l9.584-9.291h1.714l-6.961,6.76
		L427.949,84.253z"/>
	<path fill="#231F20" d="M431.946,74.067c0.391-0.442,0.773-0.802,1.149-1.08c0.375-0.278,0.74-0.489,1.096-0.633
		c0.354-0.144,0.694-0.242,1.019-0.293c0.324-0.052,0.63-0.078,0.918-0.078c2.459,0,3.688,1.451,3.688,4.353v7.917h-1.234v-7.809
		c0-0.556-0.049-1.037-0.146-1.443c-0.098-0.407-0.258-0.741-0.479-1.003c-0.222-0.262-0.51-0.458-0.864-0.586
		c-0.354-0.128-0.79-0.193-1.304-0.193c-0.68,0-1.33,0.201-1.953,0.602c-0.622,0.401-1.252,0.967-1.89,1.697v8.735h-1.235V67.354
		h1.235V74.067z"/>
	<path fill="#231F20" d="M451.762,82.648c-0.298,0.36-0.635,0.661-1.011,0.903s-0.756,0.438-1.142,0.586s-0.767,0.257-1.143,0.324
		c-0.376,0.066-0.712,0.1-1.011,0.1c-2.448,0-3.673-1.456-3.673-4.368v-7.901h1.234v7.793c0,1.122,0.208,1.942,0.625,2.461
		c0.417,0.52,1.14,0.78,2.169,0.78c0.74,0,1.438-0.206,2.091-0.618c0.653-0.411,1.273-0.998,1.859-1.759v-8.658h1.235v11.96h-1.235
		V82.648z"/>
	<path fill="#231F20" d="M459.818,84.253h-2.254V82h2.254V84.253z"/>
	<path fill="#231F20" d="M473.445,72.292l-4.537,11.96h-1.111l-4.537-11.96h1.25l3.843,10.263l3.858-10.263H473.445z"/>
	<path fill="#231F20" d="M477.412,74.067c0.401-0.473,0.795-0.849,1.181-1.126s0.761-0.488,1.126-0.633c0.365-0.144,0.713-0.234,1.042-0.27
		c0.329-0.036,0.638-0.054,0.926-0.054c2.459,0,3.688,1.451,3.688,4.353v7.917h-1.234v-7.809c0-0.556-0.049-1.037-0.146-1.443
		c-0.098-0.407-0.258-0.741-0.479-1.003c-0.222-0.262-0.51-0.458-0.864-0.586c-0.354-0.128-0.79-0.193-1.304-0.193
		c-0.68,0-1.346,0.201-1.999,0.602c-0.653,0.401-1.299,0.967-1.937,1.697v8.735h-1.235v-11.96h1.235V74.067z"/>
</g>
<g>
	<g>
		<path fill="#231F20" d="M489.013,61.324h1.61c0.801,0,1.454,0.154,1.957,0.463c0.504,0.309,0.756,0.704,0.756,1.185
			c0,0.386-0.163,0.726-0.488,1.021c-0.326,0.295-0.834,0.502-1.525,0.623l2.159,2.463h-1.164l-2.062-2.367h-0.228v2.367h-1.016
			V61.324z M490.028,62.02v2.005c1.497,0.024,2.246-0.312,2.246-1.007c0-0.244-0.088-0.443-0.263-0.599
			c-0.175-0.155-0.408-0.26-0.7-0.316C491.02,62.047,490.592,62.02,490.028,62.02z"/>
	</g>
	<g>
		<path fill="#231F20" d="M491.247,57.849c-3.519,0-6.372,2.844-6.372,6.352s2.854,6.352,6.372,6.352c3.52,0,6.373-2.844,6.373-6.352
			S494.767,57.849,491.247,57.849z M491.247,69.404c-2.883,0-5.22-2.33-5.22-5.203c0-2.874,2.337-5.204,5.22-5.204
			s5.22,2.33,5.22,5.204C496.467,67.075,494.13,69.404,491.247,69.404z"/>
	</g>
</g>
</svg>
