<?xml version="1.0" encoding="utf-8"?>
<!-- Generator: Adobe Illustrator 16.0.0, SVG Export Plug-In . SVG Version: 6.00 Build 0)  -->
<!DOCTYPE svg PUBLIC "-//W3C//DTD SVG 1.1//EN" "http://www.w3.org/Graphics/SVG/1.1/DTD/svg11.dtd" [
	<!ENTITY ns_extend "http://ns.adobe.com/Extensibility/1.0/">
	<!ENTITY ns_ai "http://ns.adobe.com/AdobeIllustrator/10.0/">
	<!ENTITY ns_graphs "http://ns.adobe.com/Graphs/1.0/">
	<!ENTITY ns_vars "http://ns.adobe.com/Variables/1.0/">
	<!ENTITY ns_imrep "http://ns.adobe.com/ImageReplacement/1.0/">
	<!ENTITY ns_sfw "http://ns.adobe.com/SaveForWeb/1.0/">
	<!ENTITY ns_custom "http://ns.adobe.com/GenericCustomNamespace/1.0/">
	<!ENTITY ns_adobe_xpath "http://ns.adobe.com/XPath/1.0/">
]>
<svg version="1.1" id="Layer_1" xmlns:x="&ns_extend;" xmlns:i="&ns_ai;" xmlns:graph="&ns_graphs;"
	 xmlns="http://www.w3.org/2000/svg" xmlns:xlink="http://www.w3.org/1999/xlink" x="0px" y="0px" width="864.067px"
	 height="211.178px" viewBox="0 0 864.067 211.178" enable-background="new 0 0 864.067 211.178" xml:space="preserve">
<metadata>
	<sfw  xmlns="&ns_sfw;">
		<slices></slices>
		<sliceSourceBounds  height="211.178" width="864.067" y="-605.541" x="528.563" bottomLeftOrigin="true"></sliceSourceBounds>
	</sfw>
</metadata>
<path fill="#ffffff" d="M98.414,12.972c10.148,8.651,15.224,20.905,15.224,36.772c0,16.439-5.076,29.16-15.224,38.166
	c-10.151,9.005-24.516,13.508-43.096,13.508H14.793v48.457H0V0h55.319C73.898,0,88.263,4.325,98.414,12.972 M87.801,78.368
	c7.789-6.503,11.686-15.899,11.686-28.195c0-12.007-3.86-21.154-11.579-27.445c-7.719-6.289-18.798-9.434-33.234-9.434H14.793v74.83
	h39.881C68.966,88.124,80.009,84.875,87.801,78.368"/>
<path fill="#ffffff" d="M242.715,37.523v112.353h-14.366v-25.301c-4.288,8.291-10.292,14.725-18.01,19.297c-7.719,4.576-16.654,6.86-26.802,6.86
	c-10.58,0-20.014-2.429-28.302-7.29c-8.292-4.856-14.724-11.647-19.298-20.369c-4.576-8.716-6.861-18.58-6.861-29.588
	c0-11.005,2.285-20.798,6.861-29.375c4.574-8.576,10.969-15.292,19.19-20.154c8.219-4.857,17.545-7.29,27.981-7.29
	c10.292,0,19.331,2.288,27.123,6.861c7.79,4.577,13.83,11.009,18.118,19.297v-25.3H242.715z M215.056,127.255
	c7.719-7.36,12.147-16.974,13.293-28.839V89.41c-1.146-11.863-5.574-21.549-13.293-29.052c-7.719-7.504-17.368-11.257-28.946-11.257
	c-8.148,0-15.438,1.929-21.87,5.79c-6.433,3.859-11.508,9.185-15.224,15.972c-3.718,6.791-5.574,14.473-5.574,23.05
	c0,8.578,1.822,16.226,5.468,22.942c3.645,6.722,8.717,11.974,15.223,15.759c6.503,3.791,13.829,5.684,21.977,5.684
	C197.687,138.297,207.337,134.618,215.056,127.255"/>
<path fill="#ffffff" d="M328.479,51.138c-5.29-1.501-10.506-2.251-15.652-2.251c-7.149,0-12.902,1.394-17.261,4.181
	c-4.361,2.788-6.539,6.967-6.539,12.544c0,3.859,1.179,7.004,3.537,9.433c2.359,2.432,5.287,4.396,8.791,5.897
	c3.501,1.5,8.396,3.182,14.688,5.039c7.72,2.287,14.008,4.539,18.868,6.754c4.858,2.217,9.007,5.434,12.437,9.648
	c3.431,4.218,5.146,9.756,5.146,16.615c0,10.152-3.858,17.906-11.578,23.266c-7.719,5.359-17.367,8.04-28.945,8.04
	c-8.148,0-16.011-1.356-23.585-4.074c-7.578-2.713-13.938-6.571-19.083-11.577l5.789-10.293c4.858,4.434,10.614,7.935,17.26,10.508
	c6.647,2.572,13.401,3.858,20.262,3.858c7.575,0,13.756-1.571,18.547-4.717c4.787-3.142,7.184-7.72,7.184-13.724
	c0-4.145-1.216-7.537-3.646-10.185c-2.432-2.646-5.468-4.717-9.113-6.219c-3.645-1.5-8.684-3.249-15.115-5.252
	c-7.578-2.285-13.722-4.504-18.439-6.646c-4.717-2.145-8.721-5.254-12.008-9.328c-3.29-4.075-4.931-9.397-4.931-15.974
	c0-9.862,3.679-17.294,11.042-22.299c7.361-5.002,16.544-7.505,27.553-7.505c6.432,0,12.65,0.858,18.653,2.573
	c6.004,1.716,11.363,4.074,16.081,7.076l-5.574,10.935C338.557,54.749,333.767,52.639,328.479,51.138"/>
<path fill="#ffffff" d="M471.383,48.78c7.646,7.793,11.471,18.477,11.471,32.055v69.041h-14.579V84.265c0-10.577-2.932-18.868-8.791-24.872
	c-5.863-6.004-14.011-9.006-24.443-9.006c-11.577,0.145-20.834,3.719-27.766,10.721c-6.935,7.006-10.902,16.44-11.9,28.303v60.465
	h-14.365V37.523h14.365v26.158c3.859-8.716,9.541-15.294,17.046-19.725c7.505-4.43,16.616-6.717,27.338-6.862
	C453.193,37.094,463.736,40.991,471.383,48.78"/>
<path fill="#ffffff" d="M603.998,119.858l9.004,7.719c-12.15,15.152-27.731,22.729-46.741,22.729c-11.009,0-20.798-2.394-29.374-7.185
	c-8.577-4.786-15.262-11.504-20.048-20.154c-4.791-8.646-7.184-18.473-7.184-29.481c0-10.861,2.358-20.584,7.075-29.16
	s11.327-15.257,19.833-20.048c8.503-4.787,18.188-7.182,29.054-7.182c13.293,0,24.514,3.719,33.662,11.149
	c9.146,7.435,14.721,17.582,16.726,30.446l-89.196,31.734c3.002,8.722,8.074,15.582,15.224,20.584
	c7.146,5.005,15.509,7.505,25.086,7.505C581.982,138.512,594.274,132.293,603.998,119.858 M535.491,61
	c-7.647,7.934-11.471,18.621-11.471,32.057c0,1.43,0.141,3.574,0.429,6.432l76.76-27.874c-2.859-7.43-7.363-13.042-13.508-16.831
	c-6.146-3.786-13.438-5.682-21.869-5.682C553.25,49.101,543.136,53.067,535.491,61"/>
<path fill="#ffffff" d="M688.26,51.138c-5.29-1.501-10.507-2.251-15.652-2.251c-7.149,0-12.901,1.394-17.26,4.181
	c-4.362,2.788-6.54,6.967-6.54,12.544c0,3.859,1.18,7.004,3.538,9.433c2.358,2.432,5.286,4.396,8.791,5.897
	c3.501,1.5,8.395,3.182,14.686,5.039c7.722,2.287,14.009,4.539,18.87,6.754c4.857,2.217,9.005,5.434,12.437,9.648
	c3.431,4.218,5.146,9.756,5.146,16.615c0,10.152-3.859,17.906-11.578,23.266s-17.367,8.04-28.945,8.04
	c-8.146,0-16.012-1.356-23.586-4.074c-7.577-2.713-13.937-6.571-19.082-11.577l5.789-10.293c4.857,4.434,10.613,7.935,17.261,10.508
	c6.646,2.572,13.399,3.858,20.262,3.858c7.575,0,13.757-1.571,18.547-4.717c4.788-3.142,7.185-7.72,7.185-13.724
	c0-4.145-1.219-7.537-3.646-10.185c-2.433-2.646-5.468-4.717-9.113-6.219c-3.645-1.5-8.683-3.249-15.114-5.252
	c-7.578-2.285-13.724-4.504-18.439-6.646c-4.717-2.145-8.721-5.254-12.008-9.328c-3.289-4.075-4.931-9.397-4.931-15.974
	c0-9.862,3.678-17.294,11.041-22.299c7.36-5.002,16.543-7.505,27.553-7.505c6.433,0,12.648,0.858,18.652,2.573
	c6.006,1.716,11.365,4.074,16.081,7.076l-5.573,10.935C698.337,54.749,693.546,52.639,688.26,51.138"/>
<path fill="#ffffff" d="M784.53,51.138c-5.29-1.501-10.507-2.251-15.651-2.251c-7.149,0-12.901,1.394-17.261,4.181
	c-4.361,2.788-6.54,6.967-6.54,12.544c0,3.859,1.181,7.004,3.538,9.433c2.358,2.432,5.286,4.396,8.791,5.897
	c3.501,1.5,8.396,3.182,14.688,5.039c7.72,2.287,14.008,4.539,18.869,6.754c4.856,2.217,9.006,5.434,12.436,9.648
	c3.431,4.218,5.146,9.756,5.146,16.615c0,10.152-3.859,17.906-11.578,23.266c-7.72,5.359-17.367,8.04-28.945,8.04
	c-8.146,0-16.012-1.356-23.586-4.074c-7.578-2.713-13.937-6.571-19.082-11.577l5.789-10.293c4.857,4.434,10.613,7.935,17.26,10.508
	c6.646,2.572,13.401,3.858,20.263,3.858c7.574,0,13.757-1.571,18.547-4.717c4.788-3.142,7.184-7.72,7.184-13.724
	c0-4.145-1.218-7.537-3.646-10.185c-2.434-2.646-5.468-4.717-9.113-6.219c-3.646-1.5-8.683-3.249-15.115-5.252
	c-7.578-2.285-13.723-4.504-18.438-6.646c-4.717-2.145-8.722-5.254-12.008-9.328c-3.289-4.075-4.932-9.397-4.932-15.974
	c0-9.862,3.678-17.294,11.042-22.299c7.36-5.002,16.543-7.505,27.552-7.505c6.434,0,12.649,0.858,18.654,2.573
	c6.004,1.716,11.364,4.074,16.081,7.076l-5.575,10.935C794.607,54.749,789.816,52.639,784.53,51.138"/>
<path fill="#ffffff" d="M659.667,210.616h-6.117l-3.023-8.555h-13.219l-2.906,8.555h-6.094l12.586-33.608h6.281L659.667,210.616z M649.05,197.514
	l-4.664-13.406c-0.142-0.438-0.289-1.141-0.445-2.109h-0.094c-0.141,0.892-0.297,1.595-0.469,2.109l-4.617,13.406H649.05z"/>
<path fill="#ffffff" d="M702.324,209.28v-5.742c0.517,0.469,1.129,0.891,1.84,1.266s1.466,0.691,2.263,0.949s1.594,0.457,2.391,0.598
	s1.531,0.211,2.203,0.211c2.344,0,4.09-0.391,5.238-1.172c1.147-0.781,1.723-1.914,1.723-3.398c0-0.797-0.19-1.487-0.574-2.073
	c-0.383-0.587-0.918-1.121-1.604-1.605c-0.688-0.483-1.496-0.948-2.426-1.395c-0.931-0.446-1.927-0.91-2.988-1.396
	c-1.141-0.609-2.203-1.227-3.188-1.852c-0.985-0.625-1.841-1.316-2.566-2.074c-0.727-0.758-1.297-1.613-1.711-2.566
	s-0.621-2.069-0.621-3.352c0-1.578,0.355-2.949,1.066-4.113s1.647-2.125,2.813-2.883s2.488-1.32,3.973-1.688
	c1.485-0.368,3-0.551,4.547-0.551c3.517,0,6.078,0.397,7.688,1.194v5.508c-1.905-1.375-4.357-2.063-7.357-2.063
	c-0.828,0-1.652,0.078-2.474,0.234s-1.555,0.414-2.203,0.773c-0.647,0.359-1.176,0.82-1.582,1.383
	c-0.405,0.563-0.608,1.242-0.608,2.039c0,0.75,0.155,1.398,0.469,1.945c0.313,0.547,0.77,1.047,1.371,1.5
	c0.601,0.453,1.336,0.895,2.203,1.324c0.867,0.429,1.871,0.895,3.012,1.395c1.172,0.609,2.277,1.25,3.316,1.922
	s1.952,1.414,2.741,2.227c0.789,0.813,1.414,1.715,1.875,2.707s0.691,2.121,0.691,3.388c0,1.702-0.344,3.141-1.031,4.313
	c-0.687,1.173-1.612,2.125-2.776,2.859c-1.164,0.733-2.505,1.266-4.021,1.594s-3.117,0.492-4.805,0.492
	c-0.563,0-1.255-0.043-2.074-0.129c-0.82-0.086-1.66-0.211-2.521-0.375c-0.859-0.164-1.672-0.363-2.438-0.599
	C703.412,209.84,702.792,209.577,702.324,209.28"/>
<path fill="#ffffff" d="M757.05,211.178c-4.844,0-8.724-1.57-11.638-4.711c-2.913-3.141-4.37-7.227-4.37-12.258c0-5.406,1.483-9.719,4.451-12.938
	c2.971-3.219,7.001-4.827,12.096-4.827c4.719,0,8.52,1.563,11.401,4.688s4.324,7.211,4.324,12.258c0,5.484-1.478,9.82-4.43,13.008
	C765.932,209.585,761.988,211.178,757.05,211.178 M757.308,181.342c-3.078,0-5.582,1.148-7.512,3.445
	c-1.931,2.297-2.896,5.32-2.896,9.069c0,3.734,0.938,6.742,2.813,9.023c1.875,2.28,4.328,3.422,7.358,3.422
	c3.22,0,5.758-1.086,7.617-3.258c1.859-2.173,2.789-5.212,2.789-9.117c0-4.017-0.902-7.117-2.707-9.306
	C762.967,182.434,760.48,181.342,757.308,181.342"/>
<path fill="#ffffff" d="M818.527,197.022c0,9.438-4.469,14.156-13.406,14.156c-8.563,0-12.844-4.539-12.844-13.617v-20.555h5.578v19.406
	c0,6.594,2.563,9.891,7.688,9.891c4.938,0,7.406-3.18,7.406-9.539v-19.758h5.578V197.022z"/>
<rect fill="#ffffff" x="839.651" y="177.137" width="5.795" height="33.916"/>
<path fill="#ffffff" d="M847.009,210.971h-0.275l-0.724-3.604c-0.02-0.09-0.034-0.186-0.046-0.282h-0.006c0.005,0.104,0.008,0.329,0.008,0.673
	v3.213h-0.243v-4.9h0.293l0.7,3.517c0.029,0.146,0.049,0.246,0.058,0.301h0.004c-0.007-0.13-0.011-0.351-0.011-0.659v-3.156h0.242
	V210.971z"/>
<polygon fill="#ffffff" points="848.358,206.76 847.921,206.76 847.921,210.971 847.671,210.971 847.671,206.76 847.236,206.76 847.236,206.071 
	848.358,206.071 "/>
<polygon fill="#ffffff" points="849.431,210.971 848.58,210.971 848.58,206.071 849.397,206.071 849.397,206.76 848.832,206.76 848.832,208.148 
	849.352,208.148 849.352,208.834 848.832,208.834 848.832,210.284 849.431,210.284 "/>
<polygon fill="#ffffff" points="850.541,210.971 849.701,210.971 849.701,206.071 849.952,206.071 849.952,210.284 850.541,210.284 "/>
<polygon fill="#ffffff" points="851.598,210.971 850.758,210.971 850.758,206.071 851.01,206.071 851.01,210.284 851.598,210.284 "/>
<rect fill="#ffffff" x="851.817" y="206.071" width="0.259" height="4.9"/>
<path fill="#ffffff" d="M853.632,210.636c-0.158,0.276-0.334,0.417-0.528,0.417c-0.224,0-0.405-0.227-0.544-0.677
	c-0.141-0.451-0.209-1.048-0.209-1.791c0-0.759,0.076-1.382,0.229-1.868c0.151-0.486,0.346-0.729,0.578-0.729
	c0.169,0,0.312,0.08,0.426,0.237v0.838c-0.115-0.25-0.254-0.375-0.416-0.375c-0.16,0-0.293,0.173-0.396,0.515
	c-0.104,0.345-0.156,0.791-0.156,1.336c0,0.563,0.046,1.007,0.134,1.328c0.09,0.324,0.211,0.483,0.362,0.483
	c0.104,0,0.194-0.063,0.271-0.194v-1.166h-0.319v-0.684h0.57v2.329H853.632z"/>
<polygon fill="#ffffff" points="854.81,210.971 853.958,210.971 853.958,206.071 854.776,206.071 854.776,206.76 854.21,206.76 854.21,208.148 
	854.732,208.148 854.732,208.834 854.21,208.834 854.21,210.284 854.81,210.284 "/>
<path fill="#ffffff" d="M856.366,210.971h-0.274l-0.726-3.604c-0.019-0.09-0.032-0.186-0.045-0.282h-0.007c0.006,0.104,0.009,0.329,0.009,0.673
	v3.213h-0.243v-4.9h0.293l0.7,3.517c0.029,0.146,0.048,0.246,0.058,0.301h0.004c-0.007-0.13-0.01-0.351-0.01-0.659v-3.156h0.241
	V210.971L856.366,210.971z"/>
<path fill="#ffffff" d="M857.798,210.766c-0.114,0.191-0.258,0.287-0.426,0.287c-0.222,0-0.396-0.225-0.529-0.674
	c-0.133-0.448-0.198-1.037-0.198-1.766c0-0.785,0.074-1.418,0.224-1.901c0.148-0.482,0.338-0.724,0.564-0.724
	c0.146,0,0.269,0.065,0.365,0.2v0.808c-0.104-0.196-0.215-0.293-0.34-0.293c-0.163,0-0.297,0.168-0.397,0.508
	c-0.103,0.34-0.153,0.793-0.153,1.361c0,0.539,0.049,0.969,0.144,1.289c0.096,0.319,0.221,0.479,0.376,0.479
	c0.144,0,0.267-0.109,0.372-0.328L857.798,210.766L857.798,210.766z"/>
<polygon fill="#ffffff" points="858.937,210.971 858.085,210.971 858.085,206.071 858.903,206.071 858.903,206.76 858.337,206.76 858.337,208.148 
	858.859,208.148 858.859,208.834 858.337,208.834 858.337,210.284 858.937,210.284 "/>
<path fill="#ffffff" d="M855.733,34.534h-3.499l-2.883-3.093c-0.26-0.285-0.514-0.527-0.762-0.729c-0.247-0.201-0.499-0.366-0.756-0.495
	c-0.256-0.129-0.534-0.223-0.836-0.283c-0.304-0.058-0.644-0.087-1.021-0.087h-1.209v4.687h-2.982v-11.55h5.94
	c0.848,0,1.628,0.064,2.342,0.194c0.713,0.129,1.334,0.324,1.863,0.584c0.527,0.26,0.939,0.586,1.238,0.974
	c0.299,0.39,0.447,0.845,0.447,1.365c0,0.409-0.095,0.784-0.283,1.125c-0.188,0.34-0.457,0.644-0.806,0.91
	c-0.349,0.265-0.769,0.492-1.259,0.68c-0.491,0.188-1.043,0.333-1.655,0.435v0.032c0.327,0.118,0.612,0.249,0.855,0.391
	s0.475,0.289,0.693,0.439c0.218,0.151,0.434,0.321,0.646,0.511c0.214,0.191,0.451,0.413,0.711,0.665L855.733,34.534z
	 M844.769,24.538v3.754h2.492c0.462,0,0.888-0.046,1.279-0.137c0.39-0.092,0.727-0.223,1.012-0.395
	c0.285-0.171,0.508-0.381,0.667-0.628s0.239-0.524,0.239-0.829c0-0.554-0.272-0.987-0.817-1.297
	c-0.546-0.312-1.331-0.468-2.354-0.468H844.769z"/>
<circle fill="none" stroke="#ffffff" stroke-width="5" stroke-miterlimit="10" cx="848.19" cy="28.759" r="13.377"/>
</svg>
