<?xml version="1.0" encoding="utf-8"?>
<!-- Generator: Adobe Illustrator 16.0.0, SVG Export Plug-In . SVG Version: 6.00 Build 0)  -->
<!DOCTYPE svg PUBLIC "-//W3C//DTD SVG 1.1//EN" "http://www.w3.org/Graphics/SVG/1.1/DTD/svg11.dtd" [
	<!ENTITY ns_extend "http://ns.adobe.com/Extensibility/1.0/">
	<!ENTITY ns_ai "http://ns.adobe.com/AdobeIllustrator/10.0/">
	<!ENTITY ns_graphs "http://ns.adobe.com/Graphs/1.0/">
	<!ENTITY ns_vars "http://ns.adobe.com/Variables/1.0/">
	<!ENTITY ns_imrep "http://ns.adobe.com/ImageReplacement/1.0/">
	<!ENTITY ns_sfw "http://ns.adobe.com/SaveForWeb/1.0/">
	<!ENTITY ns_custom "http://ns.adobe.com/GenericCustomNamespace/1.0/">
	<!ENTITY ns_adobe_xpath "http://ns.adobe.com/XPath/1.0/">
]>
<svg version="1.1" id="Layer_1" xmlns:x="&ns_extend;" xmlns:i="&ns_ai;" xmlns:graph="&ns_graphs;"
	 xmlns="http://www.w3.org/2000/svg" xmlns:xlink="http://www.w3.org/1999/xlink" x="0px" y="0px" width="1052px" height="283px"
	 viewBox="0 0 1052 283" enable-background="new 0 0 1052 283" xml:space="preserve">
<metadata>
	<sfw  xmlns="&ns_sfw;">
		<slices></slices>
		<sliceSourceBounds  width="1052" height="283" x="434.5" y="-641.5" bottomLeftOrigin="true"></sliceSourceBounds>
	</sfw>
</metadata>
<rect x="0.5" y="0.5" fill="none" stroke="#000000" stroke-miterlimit="10" width="1051" height="282"/>
<path d="M182.977,55.335c10.148,8.651,15.224,20.905,15.224,36.772c0,16.439-5.076,29.16-15.224,38.166
	c-10.151,9.005-24.516,13.508-43.096,13.508H99.356v48.457H84.563V42.363h55.319C158.461,42.363,172.826,46.688,182.977,55.335
	 M172.364,120.731c7.789-6.503,11.686-15.899,11.686-28.195c0-12.007-3.86-21.154-11.579-27.445
	c-7.719-6.289-18.798-9.434-33.234-9.434H99.356v74.83h39.881C153.529,130.487,164.572,127.238,172.364,120.731"/>
<path d="M327.278,79.886v112.352h-14.366v-25.301c-4.288,8.292-10.292,14.725-18.01,19.297c-7.719,4.577-16.654,6.861-26.802,6.861
	c-10.58,0-20.014-2.429-28.302-7.291c-8.292-4.856-14.724-11.647-19.298-20.368c-4.576-8.716-6.861-18.58-6.861-29.589
	c0-11.005,2.285-20.798,6.861-29.375c4.574-8.576,10.969-15.292,19.19-20.154c8.219-4.857,17.545-7.29,27.981-7.29
	c10.292,0,19.331,2.288,27.123,6.861c7.79,4.577,13.83,11.009,18.118,19.297v-25.3H327.278z M299.619,169.618
	c7.719-7.36,12.147-16.973,13.293-28.839v-9.006c-1.146-11.863-5.574-21.549-13.293-29.052
	c-7.719-7.504-17.368-11.257-28.946-11.257c-8.148,0-15.438,1.929-21.87,5.79c-6.433,3.859-11.508,9.185-15.224,15.972
	c-3.718,6.791-5.574,14.473-5.574,23.05s1.822,16.226,5.468,22.942c3.645,6.721,8.717,11.974,15.223,15.758
	c6.503,3.791,13.829,5.684,21.977,5.684C282.25,180.66,291.9,176.981,299.619,169.618"/>
<path d="M413.042,93.501c-5.29-1.501-10.506-2.251-15.652-2.251c-7.15,0-12.902,1.394-17.261,4.181
	c-4.361,2.788-6.539,6.967-6.539,12.544c0,3.859,1.179,7.004,3.537,9.433c2.359,2.432,5.287,4.396,8.791,5.897
	c3.501,1.5,8.396,3.182,14.688,5.039c7.719,2.287,14.007,4.539,18.868,6.754c4.858,2.217,9.006,5.434,12.436,9.648
	c3.431,4.218,5.146,9.756,5.146,16.615c0,10.152-3.859,17.906-11.578,23.266c-7.719,5.359-17.368,8.04-28.946,8.04
	c-8.148,0-16.011-1.356-23.585-4.074c-7.578-2.713-13.937-6.571-19.083-11.577l5.789-10.293c4.858,4.433,10.614,7.934,17.26,10.508
	c6.647,2.572,13.401,3.858,20.262,3.858c7.575,0,13.756-1.571,18.547-4.717c4.787-3.142,7.183-7.72,7.183-13.724
	c0-4.144-1.216-7.537-3.645-10.184c-2.432-2.645-5.468-4.717-9.113-6.219c-3.645-1.5-8.684-3.249-15.116-5.252
	c-7.578-2.285-13.722-4.504-18.439-6.646c-4.717-2.145-8.721-5.254-12.008-9.328c-3.29-4.075-4.931-9.397-4.931-15.974
	c0-9.862,3.679-17.294,11.042-22.299c7.361-5.002,16.544-7.505,27.553-7.505c6.432,0,12.65,0.858,18.653,2.573
	c6.004,1.716,11.364,4.074,16.081,7.076l-5.574,10.935C423.12,97.112,418.33,95.002,413.042,93.501"/>
<path d="M555.946,91.143c7.646,7.793,11.471,18.477,11.471,32.055v69.041h-14.579v-65.611c0-10.577-2.932-18.868-8.791-24.872
	c-5.863-6.004-14.011-9.006-24.443-9.006c-11.578,0.145-20.835,3.719-27.766,10.721c-6.935,7.006-10.902,16.44-11.9,28.303v60.465
	h-14.366V79.886h14.366v26.158c3.859-8.716,9.541-15.294,17.045-19.725c7.505-4.43,16.617-6.717,27.338-6.862
	C537.756,79.457,548.299,83.354,555.946,91.143"/>
<path d="M688.56,162.221l9.005,7.719c-12.151,15.152-27.732,22.729-46.742,22.729c-11.009,0-20.798-2.393-29.374-7.184
	c-8.577-4.787-15.261-11.505-20.048-20.155c-4.791-8.647-7.183-18.473-7.183-29.481c0-10.861,2.358-20.584,7.075-29.16
	c4.717-8.576,11.327-15.257,19.833-20.048c8.503-4.787,18.188-7.182,29.054-7.182c13.293,0,24.513,3.719,33.662,11.149
	c9.146,7.435,14.721,17.582,16.725,30.446l-89.196,31.734c3.002,8.722,8.074,15.582,15.224,20.584
	c7.146,5.005,15.508,7.505,25.086,7.505C666.545,180.875,678.837,174.656,688.56,162.221 M620.054,103.363
	c-7.648,7.934-11.471,18.621-11.471,32.057c0,1.43,0.141,3.574,0.429,6.432l76.76-27.874c-2.86-7.43-7.364-13.042-13.508-16.831
	c-6.146-3.786-13.438-5.682-21.87-5.682C637.813,91.464,627.699,95.43,620.054,103.363"/>
<path d="M772.823,93.501c-5.29-1.501-10.507-2.251-15.652-2.251c-7.149,0-12.901,1.394-17.26,4.181
	c-4.362,2.788-6.54,6.967-6.54,12.544c0,3.859,1.18,7.004,3.538,9.433c2.358,2.432,5.286,4.396,8.791,5.897
	c3.501,1.5,8.395,3.182,14.686,5.039c7.721,2.287,14.009,4.539,18.87,6.754c4.857,2.217,9.005,5.434,12.436,9.648
	c3.431,4.218,5.146,9.756,5.146,16.615c0,10.152-3.859,17.906-11.578,23.266s-17.367,8.04-28.945,8.04
	c-8.147,0-16.012-1.356-23.586-4.074c-7.578-2.713-13.937-6.571-19.082-11.577l5.789-10.293c4.857,4.433,10.613,7.934,17.26,10.508
	c6.646,2.572,13.4,3.858,20.262,3.858c7.575,0,13.757-1.571,18.547-4.717c4.788-3.142,7.184-7.72,7.184-13.724
	c0-4.144-1.218-7.537-3.646-10.184c-2.433-2.645-5.468-4.717-9.113-6.219c-3.645-1.5-8.683-3.249-15.115-5.252
	c-7.578-2.285-13.723-4.504-18.439-6.646c-4.717-2.145-8.721-5.254-12.008-9.328c-3.289-4.075-4.931-9.397-4.931-15.974
	c0-9.862,3.678-17.294,11.042-22.299c7.36-5.002,16.543-7.505,27.552-7.505c6.433,0,12.649,0.858,18.653,2.573
	c6.005,1.716,11.365,4.074,16.081,7.076l-5.574,10.935C782.9,97.112,778.109,95.002,772.823,93.501"/>
<path d="M869.093,93.501c-5.29-1.501-10.507-2.251-15.652-2.251c-7.149,0-12.901,1.394-17.26,4.181
	c-4.362,2.788-6.54,6.967-6.54,12.544c0,3.859,1.18,7.004,3.538,9.433c2.358,2.432,5.286,4.396,8.791,5.897
	c3.501,1.5,8.396,3.182,14.687,5.039c7.72,2.287,14.008,4.539,18.869,6.754c4.857,2.217,9.006,5.434,12.436,9.648
	c3.431,4.218,5.146,9.756,5.146,16.615c0,10.152-3.859,17.906-11.578,23.266s-17.367,8.04-28.945,8.04
	c-8.147,0-16.012-1.356-23.586-4.074c-7.578-2.713-13.937-6.571-19.082-11.577l5.789-10.293c4.857,4.433,10.613,7.934,17.26,10.508
	c6.646,2.572,13.401,3.858,20.262,3.858c7.575,0,13.757-1.571,18.547-4.717c4.788-3.142,7.184-7.72,7.184-13.724
	c0-4.144-1.218-7.537-3.646-10.184c-2.433-2.645-5.468-4.717-9.113-6.219c-3.645-1.5-8.683-3.249-15.115-5.252
	c-7.578-2.285-13.723-4.504-18.439-6.646c-4.717-2.145-8.721-5.254-12.008-9.328c-3.289-4.075-4.931-9.397-4.931-15.974
	c0-9.862,3.678-17.294,11.042-22.299c7.36-5.002,16.543-7.505,27.552-7.505c6.433,0,12.649,0.858,18.654,2.573
	c6.004,1.716,11.364,4.074,16.081,7.076l-5.575,10.935C879.17,97.112,874.379,95.002,869.093,93.501"/>
<path d="M744.23,252.979h-6.117l-3.023-8.555h-13.219l-2.906,8.555h-6.094l12.586-33.609h6.281L744.23,252.979z M733.613,239.877
	l-4.664-13.406c-0.141-0.438-0.289-1.141-0.445-2.109h-0.094c-0.141,0.891-0.297,1.594-0.469,2.109l-4.617,13.406H733.613z"/>
<path d="M786.887,251.643V245.9c0.516,0.469,1.129,0.891,1.84,1.266s1.465,0.691,2.262,0.949s1.594,0.457,2.391,0.598
	s1.531,0.211,2.203,0.211c2.344,0,4.09-0.391,5.238-1.172s1.723-1.914,1.723-3.398c0-0.797-0.191-1.488-0.574-2.074
	s-0.918-1.121-1.605-1.605s-1.496-0.949-2.426-1.395s-1.926-0.91-2.988-1.395c-1.141-0.609-2.203-1.227-3.188-1.852
	s-1.84-1.316-2.566-2.074s-1.297-1.613-1.711-2.566s-0.621-2.07-0.621-3.352c0-1.578,0.355-2.949,1.066-4.113
	s1.648-2.125,2.813-2.883s2.488-1.32,3.973-1.688s3-0.551,4.547-0.551c3.516,0,6.078,0.398,7.687,1.195v5.508
	c-1.905-1.375-4.358-2.063-7.358-2.063c-0.828,0-1.652,0.078-2.473,0.234s-1.555,0.414-2.203,0.773s-1.176,0.82-1.582,1.383
	s-0.609,1.242-0.609,2.039c0,0.75,0.156,1.398,0.469,1.945s0.77,1.047,1.371,1.5s1.336,0.895,2.203,1.324s1.871,0.895,3.012,1.395
	c1.172,0.609,2.277,1.25,3.316,1.922s1.953,1.414,2.742,2.227s1.414,1.715,1.875,2.707s0.691,2.121,0.691,3.387
	c0,1.703-0.344,3.141-1.031,4.313s-1.613,2.125-2.777,2.859s-2.504,1.266-4.02,1.594s-3.117,0.492-4.805,0.492
	c-0.563,0-1.254-0.043-2.074-0.129s-1.66-0.211-2.52-0.375s-1.672-0.363-2.438-0.598S787.355,251.939,786.887,251.643"/>
<path d="M841.613,253.541c-4.844,0-8.723-1.57-11.637-4.711s-4.371-7.227-4.371-12.258c0-5.406,1.484-9.719,4.452-12.938
	c2.97-3.219,7.001-4.828,12.095-4.828c4.719,0,8.52,1.563,11.402,4.688s4.324,7.211,4.324,12.258c0,5.484-1.477,9.82-4.43,13.008
	S846.551,253.541,841.613,253.541 M841.871,223.705c-3.078,0-5.582,1.148-7.512,3.445s-2.895,5.32-2.895,9.07
	c0,3.734,0.938,6.742,2.813,9.023s4.328,3.422,7.359,3.422c3.219,0,5.758-1.086,7.617-3.258s2.789-5.211,2.789-9.117
	c0-4.016-0.902-7.117-2.707-9.305S845.043,223.705,841.871,223.705"/>
<path d="M903.09,239.385c0,9.438-4.469,14.156-13.406,14.156c-8.563,0-12.844-4.539-12.844-13.617v-20.555h5.578v19.406
	c0,6.594,2.563,9.891,7.688,9.891c4.938,0,7.406-3.18,7.406-9.539v-19.758h5.578V239.385z"/>
<rect x="924.214" y="219.5" width="5.795" height="33.916"/>
<path d="M931.572,253.334h-0.275l-0.724-3.604c-0.019-0.09-0.034-0.185-0.046-0.282h-0.006c0.005,0.104,0.008,0.329,0.008,0.673
	v3.213h-0.243v-4.9h0.293l0.7,3.516c0.029,0.146,0.049,0.246,0.058,0.301h0.004c-0.007-0.13-0.011-0.35-0.011-0.659v-3.157h0.242
	V253.334z"/>
<polygon points="932.921,249.123 932.484,249.123 932.484,253.334 932.234,253.334 932.234,249.123 931.799,249.123 
	931.799,248.434 932.921,248.434 "/>
<polygon points="933.994,253.334 933.143,253.334 933.143,248.434 933.96,248.434 933.96,249.123 933.395,249.123 933.395,250.511 
	933.915,250.511 933.915,251.197 933.395,251.197 933.395,252.646 933.994,252.646 "/>
<polygon points="935.103,253.334 934.264,253.334 934.264,248.434 934.515,248.434 934.515,252.646 935.103,252.646 "/>
<polygon points="936.161,253.334 935.321,253.334 935.321,248.434 935.573,248.434 935.573,252.646 936.161,252.646 "/>
<rect x="936.38" y="248.434" width="0.259" height="4.9"/>
<path d="M938.195,252.999c-0.158,0.276-0.334,0.417-0.528,0.417c-0.224,0-0.405-0.227-0.544-0.677
	c-0.14-0.451-0.209-1.048-0.209-1.791c0-0.759,0.076-1.382,0.229-1.868c0.151-0.486,0.345-0.729,0.578-0.729
	c0.169,0,0.311,0.08,0.426,0.238v0.838c-0.116-0.25-0.255-0.375-0.416-0.375s-0.294,0.172-0.396,0.514
	c-0.104,0.345-0.156,0.791-0.156,1.337c0,0.563,0.046,1.006,0.134,1.327c0.089,0.324,0.21,0.484,0.362,0.484
	c0.104,0,0.194-0.064,0.271-0.195v-1.166h-0.319v-0.683h0.57V252.999z"/>
<polygon points="939.373,253.334 938.521,253.334 938.521,248.434 939.339,248.434 939.339,249.123 938.773,249.123 
	938.773,250.511 939.295,250.511 939.295,251.197 938.773,251.197 938.773,252.646 939.373,252.646 "/>
<path d="M940.929,253.334h-0.275l-0.725-3.604c-0.019-0.09-0.033-0.185-0.045-0.282h-0.007c0.006,0.104,0.009,0.329,0.009,0.673
	v3.213h-0.243v-4.9h0.293l0.7,3.516c0.029,0.146,0.048,0.246,0.057,0.301h0.004c-0.007-0.13-0.01-0.35-0.01-0.659v-3.157h0.242
	V253.334z"/>
<path d="M942.361,253.129c-0.114,0.191-0.257,0.287-0.426,0.287c-0.221,0-0.396-0.225-0.529-0.674
	c-0.133-0.448-0.198-1.037-0.198-1.766c0-0.785,0.074-1.418,0.224-1.901c0.148-0.482,0.337-0.724,0.564-0.724
	c0.146,0,0.269,0.066,0.365,0.201v0.807c-0.104-0.196-0.215-0.293-0.339-0.293c-0.164,0-0.297,0.168-0.398,0.508
	c-0.103,0.34-0.153,0.793-0.153,1.361c0,0.539,0.048,0.969,0.143,1.289c0.096,0.32,0.221,0.48,0.376,0.48
	c0.144,0,0.267-0.109,0.372-0.328V253.129z"/>
<polygon points="943.5,253.334 942.648,253.334 942.648,248.434 943.466,248.434 943.466,249.123 942.9,249.123 942.9,250.511 
	943.422,250.511 943.422,251.197 942.9,251.197 942.9,252.646 943.5,252.646 "/>
<path d="M940.296,76.897h-3.499l-2.883-3.093c-0.26-0.285-0.514-0.527-0.762-0.729c-0.247-0.201-0.499-0.366-0.756-0.495
	c-0.255-0.129-0.534-0.223-0.836-0.283c-0.303-0.058-0.643-0.087-1.02-0.087h-1.209v4.687h-2.982V65.347h5.94
	c0.848,0,1.628,0.064,2.342,0.194c0.713,0.129,1.334,0.324,1.863,0.584c0.528,0.26,0.94,0.586,1.239,0.974
	c0.298,0.39,0.447,0.845,0.447,1.365c0,0.409-0.095,0.784-0.283,1.125c-0.188,0.34-0.457,0.644-0.806,0.91
	c-0.349,0.265-0.769,0.492-1.259,0.68c-0.491,0.188-1.043,0.333-1.655,0.435v0.032c0.327,0.118,0.612,0.249,0.855,0.391
	c0.244,0.142,0.475,0.289,0.694,0.439c0.217,0.151,0.433,0.321,0.646,0.511c0.214,0.191,0.451,0.413,0.711,0.665L940.296,76.897z
	 M929.332,66.901v3.754h2.492c0.462,0,0.888-0.046,1.279-0.137c0.39-0.092,0.727-0.223,1.012-0.395
	c0.285-0.171,0.508-0.381,0.667-0.628c0.16-0.247,0.239-0.524,0.239-0.829c0-0.554-0.272-0.987-0.817-1.297
	c-0.546-0.312-1.331-0.468-2.354-0.468H929.332z"/>
<circle fill="none" stroke="#000000" stroke-width="5" stroke-miterlimit="10" cx="932.753" cy="71.122" r="13.377"/>
</svg>
