<?xml version="1.0" encoding="utf-8"?>
<!-- Generator: Adobe Illustrator 16.0.0, SVG Export Plug-In . SVG Version: 6.00 Build 0)  -->
<!DOCTYPE svg PUBLIC "-//W3C//DTD SVG 1.1//EN" "http://www.w3.org/Graphics/SVG/1.1/DTD/svg11.dtd">
<svg version="1.1" id="b08e8e8f-1307-48a6-9539-94597298b0fc"
	 xmlns="http://www.w3.org/2000/svg" xmlns:xlink="http://www.w3.org/1999/xlink" x="0px" y="0px" width="1038px"
	 height="764.063px" viewBox="0 0 1038 764.063" enable-background="new 0 0 1038 764.063" xml:space="preserve">
<title>creation</title>
<rect x="637" y="184.064" fill="#ffffff" width="375" height="412.999"/>
<circle fill="#ffffff" cx="262" cy="429.063" r="262"/>
<line fill="none" stroke="#3F3D56" stroke-width="2" stroke-miterlimit="10" x1="996.917" y1="571.225" x2="996.917" y2="455.131"/>
<circle fill="#3F3D56" cx="996.917" cy="455.13" r="16.417"/>
<path fill="#3F3D56" d="M996.917,526.682c0,0-2.345-50.443-50.424-44.58"/>
<line fill="none" stroke="#3F3D56" stroke-width="2" stroke-miterlimit="10" x1="850.007" y1="571.379" x2="850.007" y2="189.375"/>
<circle fill="#3F3D56" cx="850.007" cy="189.192" r="16.417"/>
<circle fill="#3F3D56" cx="799.583" cy="469.357" r="16.417"/>
<path fill="#3F3D56" d="M850.007,273.052c0,0-2.345-50.443-50.424-44.579"/>
<path fill="#3F3D56" d="M850.007,416.051c0,0-2.345-50.442-50.424-44.579"/>
<path fill="none" stroke="#3F3D56" stroke-width="2" stroke-miterlimit="10" d="M850.007,566.866c0,0,10.555-92.818-50.424-97.508"
	/>
<circle fill="#3F3D56" cx="900.438" cy="469.357" r="16.417"/>
<path fill="none" stroke="#3F3D56" stroke-width="2" stroke-miterlimit="10" d="M850.015,566.866c0,0-10.555-92.818,50.424-97.508"
	/>
<circle fill="#3F3D56" cx="901.438" cy="315.357" r="16.417"/>
<path fill="none" stroke="#3F3D56" stroke-width="2" stroke-miterlimit="10" d="M851.015,412.866c0,0-10.555-92.818,50.424-97.508"
	/>
<line fill="none" stroke="#3F3D56" stroke-width="2" stroke-miterlimit="10" x1="736.356" y1="571.879" x2="736.356" y2="339.692"/>
<circle fill="#3F3D56" cx="736.356" cy="339.692" r="16.417"/>
<path fill="#3F3D56" d="M736.356,406.551c0,0-2.346-50.442-50.425-44.579"/>
<path fill="none" stroke="#3F3D56" stroke-width="2" stroke-miterlimit="10" d="M736.356,567.366c0,0,10.554-92.818-50.425-97.508"
	/>
<circle fill="#3F3D56" cx="685.932" cy="469.857" r="16.417"/>
<circle fill="#FF6584" cx="736" cy="237.064" r="64"/>
<line fill="none" stroke="#3F3D56" stroke-width="2" stroke-miterlimit="10" x1="45" y1="33.064" x2="1037" y2="33.064"/>
<line fill="none" stroke="#3F3D56" stroke-width="2" stroke-miterlimit="10" x1="282" y1="763.063" x2="801" y2="763.063"/>
<circle fill="#666666" cx="67.064" cy="11.064" r="11.064"/>
<circle fill="#666666" cx="96" cy="11.064" r="11.064"/>
<circle fill="#666666" cx="124.936" cy="11.064" r="11.064"/>
<rect x="662" y="159.064" fill="none" stroke="#3F3D56" stroke-width="2" stroke-miterlimit="10" width="375" height="412.999"/>
<line fill="none" stroke="#3F3D56" stroke-width="2" stroke-miterlimit="10" x1="136" y1="173.064" x2="136" y2="685.063"/>
<path fill="#FFB9B9" d="M221.569,258.015c0,0-2.674,9.804,2.674,13.369s7.13,20.499,7.13,20.499l-10.695,29.411l-28.52,5.348
	l-10.695-20.499V275.84c0,0,3.565-15.151,2.674-19.607S221.569,258.015,221.569,258.015z"/>
<path opacity="0.2" enable-background="new    " d="M221.569,258.015c0,0-2.674,9.804,2.674,13.369s7.13,20.499,7.13,20.499
	l-10.695,29.411l-28.52,5.348l-10.695-20.499V275.84c0,0,3.565-15.151,2.674-19.607S221.569,258.015,221.569,258.015z"/>
<path fill="#2F2E41" d="M250.09,426.461l23.172,4.457c0,0,1.783,25.846,0,32.086c-1.782,6.238-3.565,13.369-1.782,15.15
	c1.782,1.783-8.021,47.236-7.13,49.91c0.891,2.674,2.673,10.695,1.782,16.043s-3.565,3.564-1.782,8.912
	c1.782,5.348,3.565,6.24,1.782,9.805c-1.782,3.564-10.695,90.018-13.369,90.908s-26.738,1.783-26.738,0s8.021-15.152,5.348-18.717
	s0.891-64.17,0.891-66.844s5.348-7.131,2.674-8.912c-2.674-1.783-4.457-3.566-3.565-6.24c0.891-2.674,2.674-3.564,0.891-6.238
	s-1.783-56.148-8.021-57.932c0,0-8.021,39.215-5.347,49.02c2.673,9.803-0.892,13.369-0.892,13.369l12.478,10.695l-16.934,32.084
	l-17.825-20.498c0,0,0-5.348-3.565-6.238c-3.565-0.893-5.348-1.783-5.348-4.457s-6.239-19.607-6.239-19.607
	s-17.825-56.15-8.913-84.67s12.346-27.576,12.346-27.576L250.09,426.461z"/>
<polygon fill="#FFB9B9" points="264.35,610.952 274.154,621.647 270.589,651.059 262.567,651.059 250.09,623.43 "/>
<path fill="#2F2E41" d="M270.589,630.559c0,0-3.565,8.021-6.239,6.24c-2.674-1.783-3.56-4.457-7.573-4.457s-7.579,0.891-6.687,2.674
	c0.891,1.783,11.586,21.391,11.586,21.391c3.177,6.775,3.177,14.613,0,21.391c-5.347,11.586,14.26,17.824,17.825,5.348
	c3.565-12.479,4.457-26.738,3.565-32.086c-0.891-5.348,4.457-32.977,4.457-32.977s-14.398-6.639-18.786-6.885
	C268.737,611.198,272.371,626.995,270.589,630.559z"/>
<path fill="#2F2E41" d="M246.525,650.168l3.565,10.693c0,0,0,10.695,3.565,16.043s7.13,16.934-7.13,17.826
	c-14.26,0.891-20.499-4.457-20.499-4.457s2.674-7.129,0-9.803s0-8.021,0-8.021l2.674-21.391L246.525,650.168z"/>
<path fill="#2F2E41" d="M222.461,561.042h8.021l40.107,52.584c0,0-7.13,16.934-17.825,18.717c0,0-1.783-0.891-9.804-6.238
	c-8.021-5.348-29.411-32.086-29.411-32.086l-2.674-15.15L222.461,561.042z"/>
<circle fill="#FFB9B9" cx="202.853" cy="241.081" r="28.52"/>
<path fill="#666666" d="M237.612,277.623l-8.913-3.565c0,0-0.892,31.194-17.825,31.194c-16.934,0-34.759-4.456-34.759-13.369
	s-14.26,16.042-14.26,16.042s13.369,89.126,12.478,90.017s9.804,48.129,9.804,48.129s45.454,1.781,60.605-4.457
	s19.607-17.826,19.607-17.826l-6.239-78.43l-12.478-60.605L237.612,277.623z"/>
<path fill="#575A89" d="M222.466,269.601c0,0,3.56-3.565,8.908,0c5.347,3.565,38.324,11.586,38.324,14.26v33.868
	c0,0,0.891,5.348-1.782,8.913c-2.674,3.565-8.913,16.934-5.348,23.173s16.934,78.43,14.26,87.342
	c-2.673,8.914-9.804,16.934-9.804,16.934S228.7,372.987,228.7,349.814c0-23.173,0.372-51.602,0.372-51.602L222.466,269.601z"/>
<path fill="#575A89" d="M261.676,284.752h8.021c0,0,30.303,57.932,30.303,69.518s-19.607,75.757-21.39,76.648
	s-7.13-9.803-7.13-9.803l-4.457-35.651c0,0,8.913-21.39,6.239-24.955c-2.673-3.565-16.042-31.194-16.042-31.194L261.676,284.752z"/>
<path fill="#575A89" d="M182.781,269.601c0,0-10.231,7.13-12.013,9.804c-1.783,2.674-28.521,17.825-29.412,21.39
	c-0.891,3.565,20.499,33.868,20.499,33.868s8.913,49.91,8.913,53.475s3.565,64.171,3.565,64.171s36.542,10.695,36.542,4.455
	c0-6.238,0.891-95.364-4.457-114.971C201.071,322.186,182.781,269.601,182.781,269.601z"/>
<path fill="#FFB9B9" d="M188.593,454.09c0,0,30.302,40.998,14.26,40.107s-26.738-35.65-26.738-35.65L188.593,454.09z"/>
<path fill="#575A89" d="M152.052,298.122l-10.695,2.674c0,0-8.913,78.43-3.565,89.125c5.348,10.695,33.868,80.213,33.868,77.539
	s25.089-7.439,24.131-9.957c-0.958-2.52-6.306-13.215-8.088-16.779c-1.782-3.566-4.456-8.021-3.565-12.479
	c0.892-4.457-9.804-23.531-9.804-23.531s-2.674-11.228-3.565-16.575s-8.913-64.17-8.913-64.17L152.052,298.122z"/>
<path fill="#2F2E41" d="M230.816,219.003c-0.545-1.677-1.695-3.091-3.227-3.965c0.08-1.771-0.15-3.541-0.681-5.232
	c-1.775-4.94-5.981-4.657-9.949-6.841c-1.722-0.947-1.615-1.785-2.511-3.341c-1.203-2.068-2.962-3.757-5.077-4.875
	c-2.546-1.527-5.233-3.099-8.245-3.292c-6.329-0.406-11.182,5.197-17.231,6.996c-2.666,0.792-5.531,0.825-8.211,1.574
	c-2.681,0.75-5.355,2.539-5.754,5.144c-0.184,1.203,0.141,2.436-0.046,3.639c-0.372,2.389-2.599,4.063-4.09,6.028
	c-3.297,4.346-2.92,10.486-0.283,15.214c0.559,0.982,1.194,1.919,1.901,2.8c0.224,2.248,0.907,4.425,2.007,6.397
	c2.637,4.729,7.174,8.262,11.914,11.198c-0.388-1.565-0.624-3.165-0.703-4.775c-0.067-0.537,0.008-1.083,0.216-1.582
	c0.528-1.039,1.922-1.315,2.986-1.883c2.203-1.178,3.066-3.785,3.13-6.169c0.064-2.384-0.473-4.771-0.208-7.143
	c0.029-1.119,0.548-2.168,1.419-2.871c0.821-0.438,1.746-0.646,2.676-0.601c4.513-0.173,9.228-0.251,13.208-2.26
	c1.292-0.806,2.671-1.463,4.111-1.958c3.383-0.83,6.84,1.401,8.79,4.133s2.922,5.982,4.72,8.804
	c1.799,2.821,4.907,5.337,8.384,5.003c0.391,0.003,0.767-0.154,1.039-0.435c0.149-0.25,0.216-0.542,0.191-0.833l0.194-12.513
	C231.648,223.22,231.421,221.065,230.816,219.003z"/>
</svg>
